# slope ramp + top platform, extracted from holosoma terrain_slope.obj
# base ground slab (original verts 17-24) dropped: h1 already has a flat ground plane.
v -0.66921534 -2.30889200 -0.35100578
v -0.66921534 -2.32669365 -0.27139887
v -0.66921534 0.73972736 0.33072471
v -0.66921534 0.72192571 0.41033163
v 0.99357939 -2.30889200 -0.35100578
v 0.99357939 -2.32669365 -0.27139887
v 0.99357939 0.73972736 0.33072471
v 0.99357939 0.72192571 0.41033163
v -0.78235955 0.72080899 0.00000000
v -0.78235955 0.72080899 0.41157303
v -0.78235955 2.28997753 0.00000000
v -0.78235955 2.28997753 0.41157303
v 0.78235955 0.72080899 0.00000000
v 0.78235955 0.72080899 0.41157303
v 0.78235955 2.28997753 0.00000000
v 0.78235955 2.28997753 0.41157303
f 2 4 1
f 5 2 1
f 1 4 3
f 3 5 1
f 2 8 4
f 6 2 5
f 6 8 2
f 4 8 3
f 7 5 3
f 3 8 7
f 7 6 5
f 8 6 7
f 10 12 9
f 13 10 9
f 9 12 11
f 11 13 9
f 10 16 12
f 14 10 13
f 14 16 10
f 12 16 11
f 15 13 11
f 11 16 15
f 15 14 13
f 16 14 15
